# xmcd CD database file
#
# Track frame offsets:
#	150
#	15184
#	31189
#	44509
#	58733
#	74458
#	85046
#	98619
#	109935
#	132866
#	147458
#	159294
#	172203
#	184726
#
# Disc length: 2749 seconds
#
# Revision: 0
# Processed by: cddbd v1.5.2PL0 Copyright (c) Steve Scherf et al.
# Submitted via: CDex 1.51
#
DISCID=b80abb0e
DTITLE=The Fortunate Three - The Fortunate Three
DYEAR=2009
DGENRE=Blues
TTITLE0=I Wish You Would (Billy Boy Arnold)
TTITLE1=Cut My Wings (Sea Sick Steve)
TTITLE2=Preachin (Son House)
TTITLE3=Mama Talk To Your Daughter (J.B. Lenoir)
TTITLE4=Drowning On Dry Land (Gregory/Jones)
TTITLE5=Thinking Time (Dan Sowerby)
TTITLE6=Roll and Tumble (Hambone Willie Newbern)
TTITLE7=Mystery Train Part II (Steve Earl)
TTITLE8=Catfish (Robert Pedway)
TTITLE9=Ramblin Pony (Peter Green)
TTITLE10=Preachin Blues (Robert Johnson)
TTITLE11=Hurts Me Too (Elmore James)
TTITLE12=Black Mountain Slide (Dan Sowerby)
TTITLE13=Voodoo Slide (Jimi Hendrix)
EXTD=YEAR: 2009
EXTT0=
EXTT1=
EXTT2=
EXTT3=
EXTT4=
EXTT5=
EXTT6=
EXTT7=
EXTT8=
EXTT9=
EXTT10=
EXTT11=
EXTT12=
EXTT13=
PLAYORDER=
